<mxfile host="app.diagrams.net" modified="2024-01-21T13:34:05.225Z" agent="Mozilla/5.0 (Windows NT 10.0; Win64; x64) AppleWebKit/537.36 (KHTML, like Gecko) Chrome/120.0.0.0 Safari/537.36" etag="W3rDwALjii8A1i-WKl8D" version="22.1.21" type="device">
  <diagram name="Page-1" id="e7e014a7-5840-1c2e-5031-d8a46d1fe8dd">
    <mxGraphModel dx="1434" dy="746" grid="1" gridSize="10" guides="1" tooltips="1" connect="1" arrows="1" fold="1" page="1" pageScale="1" pageWidth="1169" pageHeight="826" background="none" math="0" shadow="0">
      <root>
        <mxCell id="0" />
        <mxCell id="1" parent="0" />
        <mxCell id="qOiBHk0WUz55A_6Mr9CR-49" value="BACKENG (node.js)" style="swimlane;whiteSpace=wrap;html=1;fillColor=#66B2FF;strokeColor=#6c8ebf;fontColor=#fffafa;fontSize=18;startSize=52;strokeWidth=2;perimeterSpacing=0;rounded=1;shadow=0;glass=0;swimlaneLine=1;" vertex="1" parent="1">
          <mxGeometry x="633" y="120" width="520" height="480" as="geometry" />
        </mxCell>
        <mxCell id="qOiBHk0WUz55A_6Mr9CR-52" value="ROUTE" style="swimlane;whiteSpace=wrap;html=1;fillColor=#66B2FF;strokeColor=#6c8ebf;fontColor=#fffafa;fontSize=12;startSize=52;rounded=1;" vertex="1" parent="qOiBHk0WUz55A_6Mr9CR-49">
          <mxGeometry x="20" y="70" width="120" height="390" as="geometry" />
        </mxCell>
        <mxCell id="qOiBHk0WUz55A_6Mr9CR-53" value="assessRoute.js&lt;br&gt;&lt;br&gt;loginRoute.js&lt;br&gt;&lt;br&gt;roleRoute.js&lt;br&gt;&lt;br&gt;studentRoute.js&lt;br&gt;&lt;br&gt;userRoute.js" style="text;html=1;strokeColor=none;fillColor=none;align=center;verticalAlign=middle;whiteSpace=wrap;rounded=1;fontFamily=Courier New;" vertex="1" parent="qOiBHk0WUz55A_6Mr9CR-52">
          <mxGeometry x="5" y="80" width="110" height="200" as="geometry" />
        </mxCell>
        <mxCell id="qOiBHk0WUz55A_6Mr9CR-56" value="CONTROLLER" style="swimlane;whiteSpace=wrap;html=1;fillColor=#66B2FF;strokeColor=#6c8ebf;fontColor=#fffafa;fontSize=12;startSize=52;rounded=1;" vertex="1" parent="qOiBHk0WUz55A_6Mr9CR-49">
          <mxGeometry x="170" y="70" width="330" height="220" as="geometry" />
        </mxCell>
        <mxCell id="qOiBHk0WUz55A_6Mr9CR-57" value="assessController.js&lt;br&gt;&lt;br&gt;loginController.js&lt;br&gt;&lt;br&gt;roleController.js&lt;br&gt;&lt;br&gt;studetnController.js&lt;br&gt;&lt;br&gt;userController.js" style="text;strokeColor=none;fillColor=none;align=center;verticalAlign=middle;rounded=1;html=1;whiteSpace=wrap;fontFamily=Courier New;" vertex="1" parent="qOiBHk0WUz55A_6Mr9CR-56">
          <mxGeometry x="20" y="80" width="290" height="110" as="geometry" />
        </mxCell>
        <mxCell id="qOiBHk0WUz55A_6Mr9CR-73" value="MIDDLEWARE" style="swimlane;whiteSpace=wrap;html=1;fillColor=#66B2FF;strokeColor=#6c8ebf;fontColor=#fffafa;fontSize=10;startSize=30;rounded=1;" vertex="1" parent="qOiBHk0WUz55A_6Mr9CR-49">
          <mxGeometry x="170" y="318" width="140" height="142" as="geometry" />
        </mxCell>
        <mxCell id="qOiBHk0WUz55A_6Mr9CR-74" value="cookieJweAuth.js&lt;br&gt;&lt;br&gt;errorMiddleware.js" style="text;html=1;strokeColor=none;fillColor=none;align=center;verticalAlign=middle;whiteSpace=wrap;rounded=1;fontFamily=Courier New;" vertex="1" parent="qOiBHk0WUz55A_6Mr9CR-73">
          <mxGeometry x="10" y="23" width="120" height="107" as="geometry" />
        </mxCell>
        <mxCell id="qOiBHk0WUz55A_6Mr9CR-97" style="edgeStyle=orthogonalEdgeStyle;rounded=1;orthogonalLoop=1;jettySize=auto;html=1;exitX=0.5;exitY=0;exitDx=0;exitDy=0;startArrow=blockThin;startFill=0;endArrow=blockThin;endFill=0;strokeColor=#007FFF;" edge="1" parent="qOiBHk0WUz55A_6Mr9CR-49" source="qOiBHk0WUz55A_6Mr9CR-58">
          <mxGeometry relative="1" as="geometry">
            <mxPoint x="380" y="290" as="targetPoint" />
          </mxGeometry>
        </mxCell>
        <mxCell id="qOiBHk0WUz55A_6Mr9CR-58" value="MODEL" style="swimlane;whiteSpace=wrap;html=1;fillColor=#66B2FF;strokeColor=#6c8ebf;fontColor=#fffafa;fontSize=12;startSize=30;rounded=1;" vertex="1" parent="qOiBHk0WUz55A_6Mr9CR-49">
          <mxGeometry x="320" y="317" width="120" height="143" as="geometry" />
        </mxCell>
        <mxCell id="qOiBHk0WUz55A_6Mr9CR-59" value="assessModel.js&lt;br&gt;&lt;br&gt;studentModel.js&lt;br&gt;&lt;br&gt;userModel.js" style="text;html=1;strokeColor=none;fillColor=none;align=center;verticalAlign=middle;whiteSpace=wrap;rounded=1;fontFamily=Courier New;" vertex="1" parent="qOiBHk0WUz55A_6Mr9CR-58">
          <mxGeometry x="8.09" y="30" width="101.91" height="103" as="geometry" />
        </mxCell>
        <mxCell id="qOiBHk0WUz55A_6Mr9CR-98" style="edgeStyle=orthogonalEdgeStyle;rounded=1;orthogonalLoop=1;jettySize=auto;html=1;exitX=0.5;exitY=0;exitDx=0;exitDy=0;startArrow=blockThin;startFill=0;endArrow=blockThin;endFill=0;strokeColor=#007FFF;" edge="1" parent="qOiBHk0WUz55A_6Mr9CR-49">
          <mxGeometry relative="1" as="geometry">
            <mxPoint x="244.5" y="290" as="targetPoint" />
            <mxPoint x="244.5" y="317" as="sourcePoint" />
          </mxGeometry>
        </mxCell>
        <mxCell id="qOiBHk0WUz55A_6Mr9CR-51" value="FRONTEND (reactjs)" style="swimlane;whiteSpace=wrap;html=1;fillColor=#66CC00;strokeColor=#82b366;fontSize=18;startSize=52;fontColor=#FFFFFF;rounded=1;strokeWidth=2;" vertex="1" parent="1">
          <mxGeometry x="17" y="120" width="520" height="480" as="geometry" />
        </mxCell>
        <mxCell id="qOiBHk0WUz55A_6Mr9CR-76" value="Router" style="swimlane;whiteSpace=wrap;html=1;fillColor=#66CC00;strokeColor=#92c077;fontSize=12;startSize=52;fontColor=#FFFFFF;rounded=1;strokeWidth=1;" vertex="1" parent="qOiBHk0WUz55A_6Mr9CR-51">
          <mxGeometry x="376" y="70" width="130" height="390" as="geometry" />
        </mxCell>
        <mxCell id="qOiBHk0WUz55A_6Mr9CR-81" value="&lt;div&gt;/login &lt;/div&gt;&lt;div&gt;&lt;br&gt;&lt;/div&gt;&lt;div&gt;&lt;span style=&quot;background-color: initial;&quot;&gt;/logout &lt;/span&gt;&lt;br&gt;&lt;/div&gt;&lt;div&gt;&lt;br&gt;&lt;/div&gt;&lt;div&gt;/student &lt;/div&gt;&lt;div&gt;&lt;br&gt;&lt;/div&gt;&lt;div&gt;/assessment &lt;/div&gt;&lt;div&gt;&lt;br&gt;&lt;/div&gt;&lt;div&gt;/report/:stdID &lt;/div&gt;&lt;div&gt;&lt;br&gt;&lt;/div&gt;&lt;div&gt;/report &lt;/div&gt;&lt;div&gt;&lt;br&gt;&lt;/div&gt;&lt;div&gt;/export &lt;/div&gt;&lt;div&gt;&lt;br&gt;&lt;/div&gt;&lt;div&gt;/usersetup &lt;/div&gt;&lt;div&gt;&lt;br&gt;&lt;/div&gt;&lt;div&gt;/analysis &lt;/div&gt;&lt;div&gt;&lt;br&gt;&lt;/div&gt;&lt;div&gt;/search &lt;/div&gt;" style="text;html=1;align=center;verticalAlign=middle;resizable=0;points=[];autosize=1;strokeColor=none;fillColor=none;fontFamily=Courier New;rounded=1;" vertex="1" parent="qOiBHk0WUz55A_6Mr9CR-76">
          <mxGeometry x="5" y="70" width="120" height="290" as="geometry" />
        </mxCell>
        <mxCell id="qOiBHk0WUz55A_6Mr9CR-77" value="Pages" style="swimlane;whiteSpace=wrap;html=1;fillColor=#66CC00;strokeColor=#92c077;fontSize=12;startSize=52;fontColor=#FFFFFF;rounded=1;strokeWidth=1;" vertex="1" parent="qOiBHk0WUz55A_6Mr9CR-51">
          <mxGeometry x="10" y="70" width="330" height="210" as="geometry" />
        </mxCell>
        <mxCell id="qOiBHk0WUz55A_6Mr9CR-79" value="&lt;div&gt;LoginPage.jsx&lt;/div&gt;&lt;div&gt;&lt;br&gt;&lt;/div&gt;&lt;div&gt;&lt;span style=&quot;background-color: initial;&quot;&gt;LogoutPage.jsx&lt;/span&gt;&lt;br&gt;&lt;/div&gt;&lt;div&gt;&lt;span style=&quot;background-color: initial;&quot;&gt;&lt;br&gt;&lt;/span&gt;&lt;/div&gt;&lt;div&gt;tudentPage.jsx&lt;/div&gt;&lt;div&gt;&lt;br&gt;&lt;/div&gt;&lt;div&gt;AssessPage.jsx&lt;/div&gt;&lt;div&gt;&lt;br&gt;&lt;/div&gt;&lt;div&gt;ReportPage.jsx&lt;/div&gt;" style="text;html=1;align=center;verticalAlign=middle;resizable=0;points=[];autosize=1;strokeColor=none;fillColor=none;fontFamily=Courier New;rounded=1;" vertex="1" parent="qOiBHk0WUz55A_6Mr9CR-77">
          <mxGeometry x="40" y="60" width="120" height="140" as="geometry" />
        </mxCell>
        <mxCell id="qOiBHk0WUz55A_6Mr9CR-89" value="&lt;div&gt;&lt;span style=&quot;background-color: initial;&quot;&gt;ExportPage.jsx&lt;/span&gt;&lt;br&gt;&lt;/div&gt;&lt;div&gt;&lt;br&gt;&lt;/div&gt;&lt;div&gt;UserPage.jsx&lt;/div&gt;&lt;div&gt;&lt;br&gt;&lt;/div&gt;&lt;div&gt;AnalysisPage.jsx&lt;/div&gt;&lt;div&gt;&lt;br&gt;&lt;/div&gt;&lt;div&gt;SearchPage.jsx&lt;/div&gt;" style="text;html=1;align=center;verticalAlign=middle;resizable=0;points=[];autosize=1;strokeColor=none;fillColor=none;fontFamily=Courier New;rounded=1;" vertex="1" parent="qOiBHk0WUz55A_6Mr9CR-77">
          <mxGeometry x="175" y="60" width="140" height="110" as="geometry" />
        </mxCell>
        <mxCell id="qOiBHk0WUz55A_6Mr9CR-107" style="edgeStyle=orthogonalEdgeStyle;rounded=1;orthogonalLoop=1;jettySize=auto;html=1;startArrow=blockThin;startFill=0;endArrow=blockThin;endFill=0;strokeColor=#00CC00;" edge="1" parent="qOiBHk0WUz55A_6Mr9CR-77">
          <mxGeometry relative="1" as="geometry">
            <mxPoint x="269" y="210" as="targetPoint" />
            <mxPoint x="269" y="239" as="sourcePoint" />
          </mxGeometry>
        </mxCell>
        <mxCell id="qOiBHk0WUz55A_6Mr9CR-78" value="Export" style="swimlane;whiteSpace=wrap;html=1;fillColor=#66CC00;strokeColor=#92c077;fontSize=12;startSize=32;fontColor=#FFFFFF;rounded=1;strokeWidth=1;" vertex="1" parent="qOiBHk0WUz55A_6Mr9CR-51">
          <mxGeometry x="210" y="310" width="130" height="150" as="geometry" />
        </mxCell>
        <mxCell id="qOiBHk0WUz55A_6Mr9CR-91" value="Assessment&lt;br&gt;(pdf)&lt;br&gt;&lt;br&gt;Consolidated&lt;br&gt;(excel)" style="text;html=1;align=center;verticalAlign=middle;resizable=0;points=[];autosize=1;strokeColor=none;fillColor=none;fontFamily=Courier New;rounded=1;" vertex="1" parent="qOiBHk0WUz55A_6Mr9CR-78">
          <mxGeometry x="10" y="43.5" width="110" height="90" as="geometry" />
        </mxCell>
        <mxCell id="qOiBHk0WUz55A_6Mr9CR-80" value="Component" style="swimlane;whiteSpace=wrap;html=1;fillColor=#66CC00;strokeColor=#92c077;fontSize=12;startSize=32;fontColor=#FFFFFF;rounded=1;strokeWidth=1;" vertex="1" parent="qOiBHk0WUz55A_6Mr9CR-51">
          <mxGeometry x="10" y="310" width="190" height="150" as="geometry" />
        </mxCell>
        <mxCell id="qOiBHk0WUz55A_6Mr9CR-90" value="LogoutConfirm.js&lt;br&gt;&lt;br&gt;SurveyComponent.jsx&lt;br&gt;&lt;br&gt;SurveyComponentEdit.jsx" style="text;html=1;align=center;verticalAlign=middle;resizable=0;points=[];autosize=1;strokeColor=none;fillColor=none;fontFamily=Courier New;rounded=1;" vertex="1" parent="qOiBHk0WUz55A_6Mr9CR-80">
          <mxGeometry y="43.5" width="190" height="90" as="geometry" />
        </mxCell>
        <mxCell id="qOiBHk0WUz55A_6Mr9CR-105" value="" style="endArrow=blockThin;startArrow=blockThin;html=1;rounded=1;exitX=1;exitY=0.25;exitDx=0;exitDy=0;endFill=0;startFill=0;strokeColor=#009900;" edge="1" parent="qOiBHk0WUz55A_6Mr9CR-51">
          <mxGeometry width="50" height="50" relative="1" as="geometry">
            <mxPoint x="343" y="200" as="sourcePoint" />
            <mxPoint x="375" y="200" as="targetPoint" />
          </mxGeometry>
        </mxCell>
        <mxCell id="qOiBHk0WUz55A_6Mr9CR-111" style="edgeStyle=orthogonalEdgeStyle;rounded=1;orthogonalLoop=1;jettySize=auto;html=1;startArrow=blockThin;startFill=0;endArrow=blockThin;endFill=0;strokeColor=#00CC00;" edge="1" parent="qOiBHk0WUz55A_6Mr9CR-51">
          <mxGeometry relative="1" as="geometry">
            <mxPoint x="123" y="281" as="targetPoint" />
            <mxPoint x="123" y="310" as="sourcePoint" />
          </mxGeometry>
        </mxCell>
        <mxCell id="qOiBHk0WUz55A_6Mr9CR-62" value="AXIO" style="rounded=1;whiteSpace=wrap;html=1;dashed=1;dashPattern=1 1;fillColor=#f5f5f5;direction=west;arcSize=17;horizontal=0;textDirection=ltr;fontFamily=Courier New;fontSize=20;strokeColor=#666666;strokeWidth=3;fontColor=#333333;fontStyle=0;verticalAlign=middle;" vertex="1" parent="1">
          <mxGeometry x="559.5" y="120" width="50" height="480" as="geometry" />
        </mxCell>
        <mxCell id="qOiBHk0WUz55A_6Mr9CR-60" value="" style="strokeWidth=2;html=1;shape=mxgraph.flowchart.database;whiteSpace=wrap;fillColor=#dae8fc;strokeColor=#6c8ebf;fontColor=#FFFFFF;fontSize=11;fontStyle=0;labelBackgroundColor=none;labelBorderColor=none;fontFamily=Courier New;rounded=1;" vertex="1" parent="1">
          <mxGeometry x="1083" y="468" width="60" height="60" as="geometry" />
        </mxCell>
        <mxCell id="qOiBHk0WUz55A_6Mr9CR-75" value="&lt;font face=&quot;Courier New&quot;&gt;MongoDB&lt;/font&gt;" style="text;html=1;strokeColor=none;fillColor=none;align=center;verticalAlign=middle;whiteSpace=wrap;rounded=1;" vertex="1" parent="1">
          <mxGeometry x="1083" y="490" width="60" height="30" as="geometry" />
        </mxCell>
        <mxCell id="qOiBHk0WUz55A_6Mr9CR-99" style="edgeStyle=orthogonalEdgeStyle;rounded=1;orthogonalLoop=1;jettySize=auto;html=1;exitX=1.004;exitY=0.067;exitDx=0;exitDy=0;entryX=0.5;entryY=0;entryDx=0;entryDy=0;strokeColor=#007FFF;endArrow=blockThin;endFill=0;startArrow=blockThin;startFill=0;exitPerimeter=0;entryPerimeter=0;" edge="1" parent="1" source="qOiBHk0WUz55A_6Mr9CR-58" target="qOiBHk0WUz55A_6Mr9CR-60">
          <mxGeometry relative="1" as="geometry">
            <Array as="points">
              <mxPoint x="1113" y="447" />
            </Array>
          </mxGeometry>
        </mxCell>
        <mxCell id="qOiBHk0WUz55A_6Mr9CR-104" value="" style="endArrow=blockThin;startArrow=blockThin;html=1;rounded=1;exitX=1;exitY=0.25;exitDx=0;exitDy=0;endFill=0;startFill=0;strokeColor=#007FFF;" edge="1" parent="1">
          <mxGeometry width="50" height="50" relative="1" as="geometry">
            <mxPoint x="773" y="320" as="sourcePoint" />
            <mxPoint x="805" y="320" as="targetPoint" />
          </mxGeometry>
        </mxCell>
      </root>
    </mxGraphModel>
  </diagram>
</mxfile>
